<svg width="17" height="15" viewBox="0 0 17 15" fill="none" xmlns="http://www.w3.org/2000/svg">
<path d="M8.73029 2.7366L9.14881 3.01017C10.3932 1.10643 12.1056 0.749183 13.4808 1.28306C14.8877 1.82922 16.0438 3.3464 16.0364 5.41344C16.034 6.11294 15.657 6.98248 14.9891 7.95118C14.3315 8.90497 13.4396 9.88755 12.5123 10.7998C11.5872 11.7099 10.6391 12.5383 9.87634 13.1848C9.60233 13.4171 9.35394 13.6245 9.13821 13.8046C9.05317 13.8756 8.9732 13.9424 8.89874 14.0048C8.8236 14.0678 8.75224 14.1277 8.68626 14.1838C8.61619 14.1253 8.54028 14.0628 8.46057 13.9975C8.35325 13.9096 8.23615 13.8143 8.10948 13.7112C7.91151 13.5501 7.69017 13.37 7.44632 13.1693C6.65332 12.5167 5.66485 11.6811 4.69989 10.7637C3.73262 9.84419 2.80202 8.85474 2.1174 7.89596C1.42101 6.9207 1.03408 6.05206 1.03653 5.36032C1.04384 3.29536 2.2853 1.77906 3.79807 1.23941C5.28746 0.708089 7.08855 1.10601 8.30961 3.00684L8.73029 2.7366Z" stroke="#FFA451"/>
</svg>
