<svg width="272" height="218" viewBox="0 0 272 218" fill="none" xmlns="http://www.w3.org/2000/svg">
<path d="M260.638 122.98L223.734 122.85L223.857 88.1899L260.761 88.3205C266.306 88.3402 270.816 83.9679 270.836 78.5479C270.855 73.1275 266.376 68.7207 260.83 68.701L223.927 68.5703L224.097 20.4782C224.122 13.458 222.72 8.3003 219.933 5.1516C217.284 2.15619 213.792 0.754356 208.95 0.737208C204.329 0.720846 200.959 2.0888 198.34 5.04693C195.564 8.17911 194.141 13.3364 194.116 20.3752L193.946 68.47L124.528 68.2242L95.1671 24.4728C92.6549 20.5685 90.2926 16.9114 87.9985 13.4008C85.933 10.2392 83.9167 7.66397 82.0103 5.73964C80.3226 4.03596 78.3972 2.71526 76.1433 1.69739C74.0166 0.739584 71.3103 0.253002 68.1066 0.241657C64.0203 0.227187 60.3072 1.30805 56.7474 3.54308C53.2247 5.75376 50.7853 8.49372 49.2892 11.92C47.9752 15.1767 47.2683 20.1715 47.2455 26.622L47.0992 67.9468L10.562 67.8174C5.01795 67.7983 0.510293 72.1733 0.491101 77.5933C0.471908 83.0132 4.94847 87.4173 10.4931 87.437L47.0302 87.5663L46.9075 122.23L10.3703 122.1C4.82573 122.081 0.318076 126.455 0.298877 131.876C0.27969 137.294 4.75626 141.697 10.3008 141.717L46.838 141.846L46.6436 196.755C46.6194 203.568 48.0663 208.673 50.9562 211.925C53.7044 215.025 57.1978 216.472 61.9487 216.489C66.5323 216.505 70.0086 215.076 72.8981 211.99C75.8571 208.829 77.3661 203.737 77.3905 196.864L77.5849 141.955L140.4 142.177L174.212 193.235C176.564 196.611 178.993 200.018 181.415 203.359C183.6 206.359 185.987 209.005 188.507 211.216C190.776 213.216 193.212 214.684 195.745 215.584C198.354 216.512 201.404 216.989 204.792 217.001C213.985 217.033 223.409 214.317 223.482 193.92L223.664 142.472L260.568 142.603C266.113 142.623 270.623 138.245 270.642 132.827C270.663 127.409 266.183 123 260.638 122.98ZM193.876 88.0831L193.753 122.743L161.045 122.627L137.732 87.8843L193.876 88.0831ZM77.9187 47.8469L91.3354 68.1008L77.8471 68.0531L77.9187 47.8469ZM77.6549 122.332L77.7777 87.6726L104.363 87.7667L127.374 122.508L77.6549 122.332ZM193.582 171.12L174.245 142.297L193.684 142.366L193.582 171.12Z" fill="#F08626"/>
</svg>
